<?xml version="1.0" standalone="no"?>
<!DOCTYPE svg PUBLIC "-//W3C//DTD SVG 20010904//EN"
 "http://www.w3.org/TR/2001/REC-SVG-20010904/DTD/svg10.dtd">
<svg version="1.0" xmlns="http://www.w3.org/2000/svg"
 width="261.000000pt" height="261.000000pt" viewBox="0 0 261.000000 261.000000"
 preserveAspectRatio="xMidYMid meet">
<metadata>
Created by potrace 1.11, written by Peter Selinger 2001-2013
</metadata>
<g transform="translate(0.000000,261.000000) scale(0.100000,-0.100000)"
fill="#000000" stroke="none">
<path d="M1246 2567 c-14 -16 -26 -26 -26 -23 0 4 -11 -5 -25 -19 -14 -14 -30
-25 -36 -25 -6 0 -7 -4 -4 -10 3 -5 -1 -10 -9 -10 -8 0 -18 -5 -22 -12 -5 -7
-3 -8 7 -3 12 8 12 6 0 -8 -7 -9 -20 -17 -29 -17 -8 0 -13 -3 -10 -6 3 -3 -14
-24 -38 -46 -24 -22 -56 -60 -71 -84 -16 -24 -31 -44 -35 -44 -5 0 -8 -6 -8
-14 0 -8 -4 -16 -9 -18 -5 -1 -11 -10 -13 -18 -5 -25 -25 -40 -53 -40 -15 0
-24 -4 -20 -10 3 -5 -1 -10 -10 -10 -21 0 -128 -107 -120 -120 3 -5 2 -10 -3
-10 -12 0 -34 -49 -27 -60 3 -5 -10 -12 -30 -16 -19 -3 -35 -10 -35 -16 0 -5
-4 -6 -10 -3 -5 3 -10 1 -10 -6 0 -7 -3 -9 -7 -6 -3 4 -13 -2 -20 -13 -8 -11
-19 -17 -25 -14 -7 4 -8 2 -4 -5 4 -6 1 -14 -8 -17 -8 -3 -23 -27 -33 -52 -16
-42 -53 -93 -53 -74 0 4 -7 -2 -15 -12 -8 -11 -15 -16 -15 -10 0 5 -10 -2 -21
-16 -11 -14 -18 -18 -14 -10 4 8 -1 6 -9 -4 -9 -11 -16 -16 -16 -11 0 5 -12
-4 -27 -21 -16 -16 -30 -30 -33 -30 -12 1 -49 -31 -43 -37 3 -4 1 -7 -6 -7 -7
0 -38 -25 -69 -55 -31 -30 -60 -55 -65 -55 -4 0 -5 -5 -2 -10 3 -5 -1 -10 -9
-10 -9 0 -16 -7 -16 -16 0 -8 -4 -13 -8 -10 -5 3 -19 -6 -30 -19 -12 -14 -19
-25 -16 -25 4 0 1 -6 -5 -14 -6 -7 -14 -33 -17 -58 -5 -34 -2 -48 11 -61 9 -9
13 -17 9 -17 -4 0 17 -23 47 -52 30 -28 48 -48 40 -43 -10 5 -12 4 -7 -3 4 -7
14 -12 23 -12 9 0 14 -3 10 -6 -6 -6 16 -34 26 -34 2 0 25 -19 49 -42 58 -54
101 -87 152 -114 28 -15 44 -32 52 -53 5 -18 18 -41 27 -51 9 -11 14 -20 10
-20 -4 0 6 -13 22 -30 16 -16 33 -30 37 -30 5 0 18 -9 30 -20 12 -10 24 -17
28 -15 5 3 11 -2 14 -10 3 -8 9 -14 13 -13 19 5 52 -24 58 -51 3 -15 15 -37
25 -49 10 -11 16 -22 13 -25 -9 -9 71 -57 100 -59 15 -1 27 -6 27 -11 0 -5 9
-5 20 -2 14 4 20 2 20 -8 0 -8 11 -26 25 -41 13 -14 22 -26 20 -26 -5 0 15
-25 58 -73 15 -18 27 -35 27 -39 0 -7 73 -90 125 -140 63 -62 98 -83 139 -85
65 -2 67 -3 61 -12 -3 -5 -1 -12 5 -16 6 -3 13 1 16 9 3 9 10 16 16 16 5 0 26
16 46 36 20 20 47 43 59 51 13 8 20 19 17 24 -3 5 -1 9 5 9 10 0 91 77 91 87
0 2 20 28 45 56 24 28 42 54 39 59 -3 4 -1 8 5 8 5 0 13 10 17 22 9 30 24 43
57 52 15 3 27 11 27 16 0 6 7 10 16 10 8 0 34 18 56 40 23 22 38 40 34 40 -4
0 2 10 14 22 19 20 24 33 21 50 0 5 3 8 9 8 6 0 9 5 8 12 -3 13 38 38 62 38 9
0 30 13 47 29 18 16 34 26 37 23 5 -5 7 3 6 23 -1 3 6 13 15 21 8 9 13 20 10
25 -4 5 -1 9 4 9 6 0 11 9 11 20 0 11 12 27 28 37 15 10 33 25 40 33 12 13 13
13 7 0 -4 -8 2 -5 13 7 11 12 22 19 26 16 3 -3 8 2 12 11 3 9 10 16 15 16 12
0 30 14 74 57 18 17 35 29 38 27 2 -2 10 3 18 13 12 14 12 16 0 8 -10 -5 -12
-4 -7 4 4 6 11 9 15 7 4 -3 18 6 29 19 12 14 27 25 33 25 5 0 7 5 4 10 -3 6
-1 10 6 10 16 0 106 94 114 121 4 12 3 24 -2 28 -6 3 -12 16 -15 28 -5 17 -2
20 11 15 14 -5 14 -4 1 14 -8 10 -33 38 -57 62 -24 24 -43 46 -43 50 0 4 -28
34 -62 67 -34 33 -58 54 -53 46 4 -8 -11 5 -34 27 -23 23 -55 47 -72 54 -16 7
-29 16 -29 20 0 5 -9 8 -21 8 -11 0 -17 5 -14 10 3 6 0 10 -8 10 -16 0 -31 27
-28 48 1 6 -3 12 -9 12 -6 0 -9 4 -6 8 3 5 -4 18 -14 30 -11 12 -20 26 -20 32
0 5 -4 10 -9 10 -5 0 -23 14 -41 30 -18 17 -35 28 -38 25 -3 -2 -10 2 -16 11
-6 8 -21 16 -34 17 -12 0 -22 5 -22 10 0 4 -4 5 -10 2 -5 -3 -10 3 -10 14 0
11 -9 36 -19 55 -41 72 -69 93 -141 103 -19 3 -37 9 -38 14 -2 5 -8 7 -13 3
-5 -3 -8 -2 -7 3 3 13 -31 73 -43 73 -6 0 -8 4 -4 9 3 6 -13 29 -36 53 -22 24
-41 45 -41 48 -3 14 -55 70 -66 70 -7 0 -11 4 -8 8 6 9 -157 172 -173 172 -6
0 -11 4 -11 8 0 5 -13 9 -29 9 -20 0 -38 -10 -55 -30z"/>
</g>
</svg>
